<?xml version="1.0" encoding="UTF-8" standalone="no"?><!DOCTYPE svg PUBLIC "-//W3C//DTD SVG 1.1//EN" "http://www.w3.org/Graphics/SVG/1.1/DTD/svg11.dtd"><svg width="100%" height="100%" viewBox="0 0 1000 1000" version="1.1" xmlns="http://www.w3.org/2000/svg" xmlns:xlink="http://www.w3.org/1999/xlink" xml:space="preserve" xmlns:serif="http://www.serif.com/" style="fill-rule:evenodd;clip-rule:evenodd;stroke-linejoin:round;stroke-miterlimit:2;"><g><path d="M500.445,852.56l-0.299,0.298l-353.849,-353.257l353.257,-353.849l0.299,0.298l0.592,706.51Z" style="fill:#10b981;"/><path d="M504.459,157.919c-1.142,1.24 -2.778,2.018 -4.595,2.02c-3.449,0.003 -6.252,-2.795 -6.255,-6.245l-0.005,-6.547c-0.003,-2.528 1.518,-4.808 3.853,-5.778c2.335,-0.969 5.023,-0.437 6.812,1.349l4.537,4.529c2.441,2.437 2.444,6.398 0.007,8.839c-1.202,1.205 -2.776,1.816 -4.354,1.833Zm0.574,685.544c1.579,0.015 3.153,0.623 4.358,1.825c2.441,2.437 2.444,6.398 0.007,8.839l-4.529,4.537c-1.786,1.789 -4.474,2.326 -6.81,1.36c-2.336,-0.965 -3.861,-3.243 -3.863,-5.771l-0.005,-6.547c-0.003,-3.45 2.795,-6.253 6.244,-6.255c1.817,-0.002 3.455,0.774 4.598,2.012Zm13.087,-669.254c-2.441,-2.437 -2.444,-6.398 -0.007,-8.839c2.437,-2.441 6.398,-2.444 8.839,-0.007l9.073,9.058c2.441,2.437 2.444,6.397 0.007,8.838c-2.437,2.442 -6.398,2.445 -8.839,0.008l-9.073,-9.058Zm27.22,27.174c-2.441,-2.437 -2.445,-6.398 -0.008,-8.839c2.437,-2.441 6.398,-2.444 8.839,-0.007l9.073,9.057c2.441,2.438 2.445,6.398 0.007,8.839c-2.437,2.441 -6.397,2.445 -8.838,0.008l-9.073,-9.058Zm27.219,27.174c-2.441,-2.437 -2.444,-6.398 -0.007,-8.839c2.437,-2.441 6.398,-2.444 8.839,-0.007l9.073,9.058c2.441,2.437 2.444,6.397 0.007,8.838c-2.437,2.442 -6.397,2.445 -8.839,0.008l-9.073,-9.058Zm27.219,27.173c-2.441,-2.437 -2.445,-6.398 -0.008,-8.839c2.437,-2.441 6.398,-2.445 8.839,-0.007l9.073,9.058c2.442,2.437 2.445,6.397 0.008,8.838c-2.437,2.442 -6.398,2.445 -8.839,0.008l-9.073,-9.058Zm27.219,27.174c-2.441,-2.437 -2.444,-6.398 -0.007,-8.839c2.437,-2.441 6.398,-2.444 8.839,-0.007l9.073,9.057c2.441,2.437 2.444,6.398 0.007,8.839c-2.437,2.441 -6.397,2.445 -8.839,0.008l-9.073,-9.058Zm27.219,27.173c-2.441,-2.437 -2.444,-6.397 -0.007,-8.838c2.437,-2.442 6.398,-2.445 8.839,-0.008l9.073,9.058c2.441,2.437 2.444,6.398 0.007,8.839c-2.437,2.441 -6.397,2.444 -8.838,0.007l-9.074,-9.058Zm27.22,27.174c-2.442,-2.437 -2.445,-6.398 -0.008,-8.839c2.437,-2.441 6.398,-2.445 8.839,-0.007l9.073,9.057c2.441,2.437 2.444,6.398 0.007,8.839c-2.437,2.441 -6.397,2.445 -8.839,0.007l-9.072,-9.057Zm27.219,27.174c-2.441,-2.437 -2.445,-6.398 -0.008,-8.839c2.438,-2.441 6.398,-2.445 8.839,-0.008l9.073,9.058c2.442,2.437 2.445,6.398 0.008,8.839c-2.437,2.441 -6.398,2.445 -8.839,0.007l-9.073,-9.057Zm27.219,27.173c-2.441,-2.437 -2.444,-6.397 -0.007,-8.838c2.437,-2.442 6.398,-2.445 8.839,-0.008l9.073,9.058c2.441,2.437 2.444,6.398 0.007,8.839c-2.437,2.441 -6.397,2.444 -8.839,0.007l-9.073,-9.058Zm27.219,27.174c-2.441,-2.437 -2.444,-6.398 -0.007,-8.839c2.437,-2.441 6.398,-2.444 8.839,-0.007l9.073,9.057c2.441,2.438 2.444,6.398 0.007,8.839c-2.437,2.441 -6.398,2.445 -8.839,0.008l-9.073,-9.058Zm27.22,27.174c-2.442,-2.437 -2.445,-6.398 -0.008,-8.839c2.437,-2.441 6.398,-2.445 8.839,-0.008l9.073,9.058c2.441,2.437 2.445,6.398 0.008,8.839c-2.438,2.441 -6.398,2.445 -8.839,0.008l-9.073,-9.058Zm27.219,27.173c-2.441,-2.437 -2.445,-6.397 -0.008,-8.839c2.438,-2.441 6.398,-2.444 8.839,-0.007l9.073,9.058c2.442,2.437 2.445,6.398 0.008,8.839c-2.437,2.441 -6.398,2.444 -8.839,0.007l-9.073,-9.058Zm27.219,27.174c-2.441,-2.437 -2.445,-6.398 -0.008,-8.839c2.438,-2.441 6.398,-2.445 8.839,-0.008l4.537,4.529c2.443,2.439 2.446,6.396 0.007,8.839l-4.529,4.537c-2.437,2.441 -6.397,2.444 -8.839,0.007c-2.441,-2.437 -2.444,-6.397 -0.007,-8.839l0.113,-0.113l-0.113,-0.113Zm-18.115,18.372c2.437,-2.441 6.397,-2.444 8.838,-0.007c2.442,2.437 2.445,6.397 0.008,8.839l-9.058,9.073c-2.437,2.441 -6.398,2.444 -8.839,0.007c-2.441,-2.437 -2.444,-6.398 -0.007,-8.839l9.058,-9.073Zm-27.174,27.22c2.437,-2.442 6.397,-2.445 8.839,-0.008c2.441,2.437 2.444,6.398 0.007,8.839l-9.058,9.073c-2.437,2.441 -6.397,2.445 -8.839,0.007c-2.441,-2.437 -2.444,-6.397 -0.007,-8.838l9.058,-9.073Zm-27.174,27.219c2.437,-2.441 6.397,-2.444 8.839,-0.007c2.441,2.437 2.444,6.397 0.007,8.839l-9.058,9.073c-2.437,2.441 -6.398,2.444 -8.839,0.007c-2.441,-2.437 -2.444,-6.397 -0.007,-8.839l9.058,-9.073Zm-27.173,27.219c2.437,-2.442 6.398,-2.445 8.839,-0.008c2.441,2.437 2.444,6.398 0.007,8.839l-9.058,9.073c-2.437,2.441 -6.398,2.445 -8.839,0.008c-2.441,-2.437 -2.444,-6.398 -0.007,-8.839l9.058,-9.073Zm-27.174,27.219c2.437,-2.441 6.397,-2.444 8.839,-0.007c2.441,2.437 2.444,6.398 0.007,8.839l-9.058,9.073c-2.437,2.441 -6.397,2.444 -8.839,0.007c-2.441,-2.437 -2.444,-6.398 -0.007,-8.839l9.058,-9.073Zm-27.174,27.219c2.437,-2.441 6.398,-2.444 8.839,-0.007c2.441,2.437 2.445,6.398 0.008,8.839l-9.058,9.073c-2.437,2.441 -6.398,2.444 -8.839,0.007c-2.441,-2.437 -2.445,-6.397 -0.008,-8.839l9.058,-9.073Zm-27.173,27.219c2.437,-2.441 6.397,-2.444 8.839,-0.007c2.441,2.437 2.444,6.398 0.007,8.839l-9.058,9.073c-2.437,2.441 -6.397,2.444 -8.838,0.007c-2.442,-2.437 -2.445,-6.398 -0.008,-8.839l9.058,-9.073Zm-27.174,27.22c2.437,-2.441 6.398,-2.445 8.839,-0.008c2.441,2.438 2.444,6.398 0.007,8.839l-9.058,9.073c-2.437,2.441 -6.397,2.445 -8.838,0.008c-2.442,-2.437 -2.445,-6.398 -0.008,-8.839l9.058,-9.073Zm-27.174,27.219c2.437,-2.441 6.398,-2.444 8.839,-0.007c2.441,2.437 2.445,6.397 0.007,8.839l-9.057,9.073c-2.438,2.441 -6.398,2.444 -8.839,0.007c-2.441,-2.437 -2.445,-6.397 -0.008,-8.839l9.058,-9.073Zm-27.173,27.219c2.437,-2.441 6.397,-2.444 8.839,-0.007c2.441,2.437 2.444,6.398 0.007,8.839l-9.058,9.073c-2.437,2.441 -6.397,2.444 -8.839,0.007c-2.441,-2.437 -2.444,-6.398 -0.007,-8.839l9.058,-9.073Zm-27.174,27.22c2.437,-2.442 6.398,-2.445 8.839,-0.008c2.441,2.437 2.444,6.398 0.007,8.839l-9.058,9.073c-2.437,2.441 -6.397,2.445 -8.838,0.008c-2.442,-2.438 -2.445,-6.398 -0.008,-8.839l9.058,-9.073Zm-27.174,27.219c2.437,-2.441 6.398,-2.445 8.839,-0.008c2.441,2.437 2.445,6.398 0.008,8.839l-9.058,9.073c-2.437,2.441 -6.398,2.445 -8.839,0.008c-2.441,-2.437 -2.445,-6.398 -0.007,-8.839l9.057,-9.073Zm-21.056,3.43c0.003,3.449 -2.796,6.252 -6.245,6.255c-3.45,0.003 -6.252,-2.795 -6.255,-6.245l-0.011,-13.094c-0.003,-3.449 2.795,-6.252 6.244,-6.255c3.45,-0.003 6.253,2.795 6.256,6.245l0.011,13.094Zm-0.033,-39.284c0.003,3.449 -2.796,6.252 -6.245,6.255c-3.449,0.003 -6.252,-2.795 -6.255,-6.245l-0.011,-13.095c-0.003,-3.449 2.795,-6.252 6.245,-6.255c3.449,-0.003 6.252,2.795 6.255,6.245l0.011,13.095Zm-0.033,-39.284c0.003,3.45 -2.795,6.253 -6.245,6.255c-3.449,0.003 -6.252,-2.795 -6.255,-6.244l-0.011,-13.094c-0.003,-3.45 2.795,-6.253 6.245,-6.256c3.449,-0.003 6.252,2.796 6.255,6.245l0.011,13.094Zm-0.033,-39.283c0.003,3.449 -2.795,6.252 -6.245,6.255c-3.449,0.003 -6.252,-2.795 -6.255,-6.245l-0.011,-13.094c-0.003,-3.45 2.795,-6.253 6.245,-6.256c3.449,-0.002 6.252,2.796 6.255,6.245l0.011,13.095Zm-0.033,-39.285c0.003,3.449 -2.795,6.252 -6.245,6.255c-3.449,0.003 -6.252,-2.795 -6.255,-6.245l-0.011,-13.095c-0.003,-3.449 2.795,-6.252 6.245,-6.255c3.449,-0.003 6.252,2.795 6.255,6.245l0.011,13.095Zm-0.033,-39.283c0.003,3.45 -2.795,6.253 -6.245,6.255c-3.449,0.003 -6.252,-2.795 -6.255,-6.244l-0.011,-13.095c-0.003,-3.449 2.795,-6.252 6.245,-6.255c3.449,-0.003 6.252,2.795 6.255,6.245l0.011,13.094Zm-0.033,-39.284c0.003,3.45 -2.795,6.253 -6.245,6.256c-3.449,0.003 -6.252,-2.796 -6.255,-6.245l-0.011,-13.095c-0.003,-3.45 2.796,-6.252 6.245,-6.255c3.449,-0.003 6.252,2.795 6.255,6.244l0.011,13.095Zm-0.033,-39.283c0.003,3.45 -2.795,6.252 -6.245,6.255c-3.449,0.003 -6.252,-2.795 -6.255,-6.244l-0.011,-13.095c-0.003,-3.449 2.796,-6.252 6.245,-6.255c3.45,-0.003 6.252,2.795 6.255,6.245l0.011,13.094Zm-0.033,-39.284c0.003,3.449 -2.795,6.252 -6.244,6.255c-3.45,0.003 -6.253,-2.795 -6.256,-6.245l-0.011,-13.095c-0.003,-3.449 2.796,-6.252 6.245,-6.255c3.45,-0.003 6.252,2.795 6.255,6.245l0.011,13.095Zm-0.033,-39.284c0.003,3.449 -2.795,6.252 -6.244,6.255c-3.45,0.003 -6.253,-2.795 -6.256,-6.245l-0.011,-13.094c-0.002,-3.45 2.796,-6.253 6.245,-6.256c3.45,-0.002 6.253,2.796 6.255,6.245l0.011,13.095Zm-0.032,-39.283c0.002,3.449 -2.796,6.252 -6.245,6.255c-3.45,0.003 -6.253,-2.795 -6.255,-6.245l-0.011,-13.094c-0.003,-3.449 2.795,-6.252 6.244,-6.255c3.45,-0.003 6.253,2.795 6.256,6.245l0.011,13.094Zm-0.033,-39.284c0.002,3.449 -2.796,6.252 -6.245,6.255c-3.45,0.003 -6.253,-2.795 -6.255,-6.245l-0.011,-13.094c-0.003,-3.45 2.795,-6.253 6.244,-6.255c3.45,-0.003 6.253,2.795 6.256,6.244l0.011,13.095Zm-0.033,-39.284c0.003,3.45 -2.796,6.253 -6.245,6.255c-3.45,0.003 -6.252,-2.795 -6.255,-6.244l-0.011,-13.095c-0.003,-3.45 2.795,-6.252 6.244,-6.255c3.45,-0.003 6.253,2.795 6.256,6.244l0.011,13.095Zm-0.033,-39.283c0.003,3.45 -2.796,6.252 -6.245,6.255c-3.449,0.003 -6.252,-2.795 -6.255,-6.244l-0.011,-13.095c-0.003,-3.449 2.795,-6.252 6.245,-6.255c3.449,-0.003 6.252,2.795 6.255,6.245l0.011,13.094Zm-0.033,-39.285c0.003,3.45 -2.795,6.253 -6.245,6.256c-3.449,0.002 -6.252,-2.796 -6.255,-6.245l-0.011,-13.095c-0.003,-3.449 2.795,-6.252 6.245,-6.255c3.449,-0.003 6.252,2.795 6.255,6.245l0.011,13.094Zm-0.033,-39.283c0.003,3.449 -2.795,6.252 -6.245,6.255c-3.449,0.003 -6.252,-2.795 -6.255,-6.245l-0.011,-13.094c-0.003,-3.45 2.795,-6.253 6.245,-6.256c3.449,-0.003 6.252,2.796 6.255,6.245l0.011,13.095Zm-0.033,-39.284c0.003,3.45 -2.795,6.252 -6.245,6.255c-3.449,0.003 -6.252,-2.795 -6.255,-6.244l-0.011,-13.095c-0.003,-3.449 2.795,-6.252 6.245,-6.255c3.449,-0.003 6.252,2.795 6.255,6.245l0.011,13.094Z" style="fill:#f87171;"/><path d="M499.854,147.142l353.849,353.257l-353.257,353.849l-0.592,-707.106Z" style="fill:#fbb0b0;"/></g></svg>